<?xml version='1.0' encoding='UTF-8'?>
<svg xmlns="http://www.w3.org/2000/svg" xmlns:inkscape="http://www.inkscape.org/namespaces/inkscape" viewBox="350.467 -457.591 60.066 116.349">
  <g xmlns:sodipodi="http://sodipodi.sourceforge.net/DTD/sodipodi-0.dtd" id="g262" inkscape:label="ohd_logo_for_red_bg" inkscape:highlight-color="#b62121">
    <title id="title262">Logo for red backgrounds</title>
    <path id="path252" style="baseline-shift:baseline;display:inline;overflow:visible;vector-effect:none;fill:#202020;fill-opacity:1;enable-background:accumulate;stop-color:#000000" d="m 400.42251,-456.4503 a 8.9682283,8.9682283 0 0 0 -8.9668,8.96875 8.9682283,8.9682283 0 0 0 0.20117,1.89453 l -23.87304,11.72266 a 8.9682283,8.9682283 0 0 0 -6.94336,-3.29297 8.9682283,8.9682283 0 0 0 -8.96875,8.9668 8.9682283,8.9682283 0 0 0 8.96875,8.96875 8.9682283,8.9682283 0 0 0 6.99414,-3.35547 l 21.4375,10.55078 a 11.505836,11.505836 0 0 1 0.66015,-1.79297 11.505836,11.505836 0 0 1 0.94336,-1.6543 l -21.34375,-10.5039 a 8.9682283,8.9682283 0 0 0 0.27735,-2.21289 8.9682283,8.9682283 0 0 0 -0.27149,-2.19141 L 393.2897,-442.046 a 8.9682283,8.9682283 0 0 0 7.13281,3.5332 8.9682283,8.9682283 0 0 0 8.96875,-8.96875 8.9682283,8.9682283 0 0 0 -8.96875,-8.96875 z m -11.2832,88.9375 -21.4375,10.54883 a 8.9682283,8.9682283 0 0 0 -6.99414,-3.35547 8.9682283,8.9682283 0 0 0 -8.96875,8.96875 8.9682283,8.9682283 0 0 0 8.96875,8.96875 8.9682283,8.9682283 0 0 0 8.96875,-8.96875 8.9682283,8.9682283 0 0 0 -0.27735,-2.21094 l 21.34375,-10.5039 a 11.505836,11.505836 0 0 1 -0.94336,-1.6543 11.505836,11.505836 0 0 1 -0.66015,-1.79297 z"/>
    <path id="path254" style="fill:#f1f1f1;fill-opacity:1;stroke:#b62121;stroke-width:0.265;stroke-linecap:round;stroke-linejoin:round;stroke-miterlimit:0;stroke-dasharray:none" d="m 400.29101,-418.19421 a 8.9682283,8.9682283 0 0 0 -8.96875,8.9668 8.9682283,8.9682283 0 0 0 0.21485,1.95117 l -23.83399,11.73047 a 8.9682283,8.9682283 0 0 0 -6.99609,-3.35742 8.9682283,8.9682283 0 0 0 -8.9668,8.96875 8.9682283,8.9682283 0 0 0 8.9668,8.96875 8.9682283,8.9682283 0 0 0 6.99609,-3.35743 l 23.83399,11.73047 a 8.9682283,8.9682283 0 0 0 -0.21485,1.95118 8.9682283,8.9682283 0 0 0 8.96875,8.96679 8.9682283,8.9682283 0 0 0 8.96875,-8.96679 8.9682283,8.9682283 0 0 0 -8.96875,-8.96876 8.9682283,8.9682283 0 0 0 -7.16015,3.56641 l -23.73243,-11.67969 a 8.9682283,8.9682283 0 0 0 0.27735,-2.21093 8.9682283,8.9682283 0 0 0 -0.27735,-2.21094 l 23.73243,-11.67969 a 8.9682283,8.9682283 0 0 0 7.16015,3.56641 8.9682283,8.9682283 0 0 0 8.96875,-8.96875 8.9682283,8.9682283 0 0 0 -8.96875,-8.9668 z m -39.25195,28.04492 -0.10742,0.21485 0.10547,0.21484 -0.16993,-0.084 0.0645,-0.13086 -0.0645,-0.13086 z"/>
  </g>
</svg>
